HIERARCHY
ROOT Hips
{
 OFFSET 0.000000 0.000000 0.000000
 CHANNELS 6 Xposition Yposition Zposition Yrotation Xrotation Zrotation
 JOINT Chest
 {
  OFFSET 0.000000 9.585900 0.002600
  CHANNELS 3 Yrotation Xrotation Zrotation
  JOINT Chest2
  {
   OFFSET 0.000000 9.601200 -0.005300
   CHANNELS 3 Yrotation Xrotation Zrotation
   JOINT Chest3
   {
    OFFSET 0.000000 9.561800 0.000000
    CHANNELS 3 Yrotation Xrotation Zrotation
    JOINT Chest4
    {
     OFFSET 0.000000 9.552100 0.000000
     CHANNELS 3 Yrotation Xrotation Zrotation
     JOINT Neck
     {
      OFFSET 0.000000 14.453000 0.000000
      CHANNELS 3 Yrotation Xrotation Zrotation
      JOINT Head
      {
       OFFSET 0.000000 8.936500 -0.011300
       CHANNELS 3 Yrotation Xrotation Zrotation
       End Site
       {
        OFFSET 0.000000 17.073600 -0.006000
       }
      }
     }
     JOINT RightCollar
     {
      OFFSET -2.921100 9.558500 0.000000
      CHANNELS 3 Yrotation Xrotation Zrotation
      JOINT RightShoulder
      {
       OFFSET -13.519700 0.000000 0.000000
       CHANNELS 3 Yrotation Xrotation Zrotation
       JOINT RightElbow
       {
        OFFSET 0.000000 -29.696600 0.000000
        CHANNELS 3 Yrotation Xrotation Zrotation
        JOINT RightWrist
        {
         OFFSET 0.000000 -24.004700 0.000000
         CHANNELS 3 Yrotation Xrotation Zrotation
         End Site
         {
          OFFSET 0.000000 -17.728500 0.000000
         }
        }
       }
      }
     }
     JOINT LeftCollar
     {
      OFFSET 2.921100 9.558500 0.000000
      CHANNELS 3 Yrotation Xrotation Zrotation
      JOINT LeftShoulder
      {
       OFFSET 13.519700 0.000000 0.000000
       CHANNELS 3 Yrotation Xrotation Zrotation
       JOINT LeftElbow
       {
        OFFSET 0.000000 -29.696600 0.000000
        CHANNELS 3 Yrotation Xrotation Zrotation
        JOINT LeftWrist
        {
         OFFSET 0.000000 -24.004700 0.000000
         CHANNELS 3 Yrotation Xrotation Zrotation
         End Site
         {
          OFFSET 0.000000 -17.728500 0.000000
         }
        }
       }
      }
     }
    }
   }
  }
 }
 JOINT RightHip
 {
  OFFSET -7.771700 -0.012900 -0.001300
  CHANNELS 3 Yrotation Xrotation Zrotation
  JOINT RightKnee
  {
   OFFSET 0.000000 -40.869800 0.001200
   CHANNELS 3 Yrotation Xrotation Zrotation
   JOINT RightAnkle
   {
    OFFSET 0.000000 -39.717900 0.002100
    CHANNELS 3 Yrotation Xrotation Zrotation
    JOINT RightToe
    {
     OFFSET 0.000000 -4.965400 11.033500
     CHANNELS 3 Yrotation Xrotation Zrotation
     End Site
     {
      OFFSET 0.000000 -1.423100 5.872300
     }
    }
   }
  }
 }
 JOINT LeftHip
 {
  OFFSET 7.771700 -0.012900 -0.001300
  CHANNELS 3 Yrotation Xrotation Zrotation
  JOINT LeftKnee
  {
   OFFSET 0.000000 -40.869800 0.001200
   CHANNELS 3 Yrotation Xrotation Zrotation
   JOINT LeftAnkle
   {
    OFFSET 0.000000 -39.717900 0.002100
    CHANNELS 3 Yrotation Xrotation Zrotation
    JOINT LeftToe
    {
     OFFSET 0.000000 -4.965400 11.033500
     CHANNELS 3 Yrotation Xrotation Zrotation
     End Site
     {
      OFFSET 0.000000 -1.423100 5.872300
     }
    }
   }
  }
 }
}
MOTION
Frames: 16
Frame Time: 0.008333
-21.783004 52.931537 6.718463 -178.371896 -18.308986 -2.094985 0.715918 16.906074 0.820118 0.072510 1.746075 0.081117 0.097819 2.934767 0.137743 0.646451 14.875281 0.768771 -1.578686 15.081609 -1.904934 -1.302553 -9.936619 -1.630089 -0.262857 -1.495697 2.707583 -1.639981 -8.706604 -4.862868 -84.942846 -78.489671 112.277509 -6.693529 -12.592259 -13.083910 -7.211165 -1.644100 0.867982 7.059596 -9.411205 8.522169 84.971820 -66.817442 -118.102957 1.416384 -11.482917 6.901917 2.020221 -60.136786 11.276207 -163.587813 86.272509 -164.977648 -12.968963 -22.169656 13.023225 -0.000909 -0.023919 0.002314 4.477807 -58.862789 -3.069053 120.763376 77.702375 119.083892 -6.383383 -19.486674 -1.426815 0.009461 0.067602 0.003880
-21.780761 52.932164 6.717843 -178.373168 -18.304206 -2.100010 0.727048 16.895273 0.827628 0.073946 1.743379 0.081875 0.098457 2.931235 0.136868 0.644015 14.877505 0.769434 -1.693387 15.033373 -1.923318 -1.387192 -9.951938 -1.619646 -0.245741 -1.493523 2.714172 -1.649871 -8.711679 -4.872333 -85.403035 -78.470938 112.752278 -6.717793 -12.681635 -13.087973 -7.200621 -1.653889 0.850044 7.066345 -9.416361 8.536326 85.200356 -66.827003 -118.277895 1.440417 -11.562078 6.998912 2.014633 -60.138007 11.262417 -163.939341 86.276509 -165.354840 -12.728604 -22.192891 12.986173 0.007115 -0.033079 -0.008941 4.459578 -58.866987 -3.049013 120.766301 77.704358 119.087113 -6.383162 -19.489031 -1.433233 0.011368 0.069515 0.004863
-21.779926 52.933287 6.716859 -178.369339 -18.303888 -2.099529 0.732743 16.887737 0.829542 0.075769 1.741701 0.081191 0.097462 2.928315 0.136700 0.640243 14.880195 0.768794 -1.814747 14.987666 -1.938429 -1.479352 -9.965030 -1.603969 -0.228092 -1.490692 2.722032 -1.659168 -8.714294 -4.881072 -85.918630 -78.466538 113.280867 -6.739375 -12.754739 -13.082040 -7.172410 -1.669138 0.806142 7.052068 -9.418711 8.577346 85.424698 -66.829300 -118.443509 1.466868 -11.655976 7.112450 2.014929 -60.134797 11.241885 -164.186880 86.279744 -165.620187 -12.549397 -22.213514 12.958435 0.012474 -0.036306 -0.015591 4.439092 -58.866289 -3.032872 120.789712 77.710283 119.100393 -6.379481 -19.489804 -1.430321 0.011949 0.069597 0.001934
-21.779791 52.934373 6.717141 -178.365745 -18.297406 -2.096394 0.737067 16.875337 0.828410 0.077282 1.740261 0.080121 0.115775 2.909920 0.135691 0.659137 14.864867 0.767778 -1.952761 14.988009 -1.933660 -1.604267 -9.982772 -1.579947 -0.251513 -1.457105 2.745178 -1.670385 -8.712636 -4.890742 -86.482602 -78.481549 113.858612 -6.757684 -12.822405 -13.066148 -7.212204 -1.632004 0.806061 7.165711 -9.474678 8.544729 85.474841 -66.839524 -118.526995 1.501169 -11.765743 7.244680 2.012234 -60.140881 11.248854 -164.027897 86.278709 -165.451572 -12.594265 -22.211760 12.960793 0.013497 -0.027639 -0.012088 4.437739 -58.871177 -3.035196 120.746883 77.710918 119.061679 -6.390368 -19.481934 -1.435667 0.018461 0.068702 0.004275
-21.779936 52.936003 6.716844 -178.363961 -18.295807 -2.093420 0.762044 16.854347 0.831952 0.054452 1.756657 0.080709 0.128337 2.897021 0.134639 0.657324 14.868555 0.769009 -2.065089 14.964422 -1.937696 -1.736517 -9.992999 -1.551307 -0.254315 -1.449474 2.754057 -1.677359 -8.710378 -4.895965 -87.087926 -78.516448 114.486069 -6.770792 -12.896770 -13.047488 -7.220189 -1.624817 0.797776 7.245853 -9.505289 8.520794 85.584856 -66.827388 -118.644878 1.543977 -11.879275 7.389390 2.016033 -60.140262 11.242331 -163.961740 86.279476 -165.387625 -12.572774 -22.217170 12.959173 0.012778 -0.023635 -0.011036 4.437521 -58.869727 -3.036677 120.724742 77.712738 119.039725 -6.394275 -19.479341 -1.437105 0.020743 0.068613 0.004918
-21.780012 52.937910 6.716550 -178.365592 -18.294815 -2.092354 0.775360 16.843017 0.833819 0.056696 1.754114 0.081920 0.130218 2.894150 0.132822 0.656182 14.871350 0.771215 -2.180924 14.948167 -1.941061 -1.872894 -9.996546 -1.520253 -0.258347 -1.441851 2.762767 -1.673136 -8.712439 -4.900475 -87.694842 -78.571990 115.108990 -6.777979 -12.989716 -13.029946 -7.225761 -1.620025 0.777483 7.302273 -9.521197 8.508619 85.704111 -66.790291 -118.761444 1.594800 -11.984483 7.535345 2.016766 -60.136454 11.222365 -164.274801 86.283714 -165.724325 -12.435839 -22.232796 12.945379 0.012734 -0.027456 -0.015096 4.436132 -58.866991 -3.035838 120.692284 77.712524 119.009872 -6.395141 -19.478337 -1.442541 0.022086 0.069653 0.006238
-21.781079 52.939902 6.716381 -178.369623 -18.293110 -2.087196 0.783888 16.836241 0.830733 0.063743 1.746618 0.080859 0.132680 2.890937 0.131819 0.673585 14.864527 0.771884 -2.316576 14.946164 -1.937402 -2.010784 -9.993874 -1.487925 -0.276628 -1.432228 2.782828 -1.667669 -8.709996 -4.905689 -88.311971 -78.644650 115.739880 -6.780064 -13.104594 -13.015556 -7.248020 -1.604969 0.768956 7.352098 -9.534586 8.488089 85.781473 -66.729641 -118.834499 1.657005 -12.089305 7.678593 2.018507 -60.136684 11.234385 -164.044878 86.284836 -165.490326 -12.551661 -22.222368 12.971172 0.007814 -0.018116 -0.009187 4.442497 -58.864535 -3.042317 120.646012 77.715605 118.966890 -6.392932 -19.472914 -1.450397 0.025486 0.069911 0.008656
-21.784111 52.941527 6.717302 -178.366452 -18.283784 -2.074735 0.782722 16.822665 0.817743 0.082812 1.727646 0.074911 0.115334 2.906333 0.137275 0.710958 14.820392 0.759950 -2.465396 14.977611 -1.921666 -2.147702 -9.984852 -1.454725 -0.291329 -1.413216 2.808110 -1.686535 -8.694166 -4.901441 -88.908494 -78.725947 116.358751 -6.780096 -13.239204 -13.009754 -7.282410 -1.555776 0.762435 7.391268 -9.549327 8.474403 85.818197 -66.648394 -118.860944 1.730251 -12.205146 7.818250 2.034096 -60.147366 11.240410 -163.532121 86.280055 -164.954055 -12.807826 -22.199170 13.018416 -0.002708 -0.003089 0.000576 4.457385 -58.868841 -3.065306 120.610762 77.720275 118.925129 -6.389872 -19.468690 -1.448030 0.024440 0.071011 0.009097
-21.785925 52.943526 6.716903 -178.366337 -18.281523 -2.070706 0.794031 16.811600 0.813735 0.079741 1.724208 0.071553 0.113861 2.909959 0.141704 0.713420 14.814787 0.757712 -2.586384 14.974466 -1.923577 -2.280953 -9.971008 -1.420837 -0.291192 -1.411435 2.814028 -1.679893 -8.712243 -4.895542 -89.428065 -78.807241 116.899601 -6.780085 -13.394643 -13.018048 -7.287473 -1.541164 0.759088 7.438085 -9.563571 8.442117 85.830023 -66.548267 -118.861683 1.809195 -12.329846 7.949267 2.040724 -60.149002 11.250730 -163.214364 86.278929 -164.618245 -12.990909 -22.183427 13.052266 -0.008994 0.004945 0.005278 4.459231 -58.868564 -3.069439 120.597031 77.717160 118.907217 -6.391080 -19.469602 -1.447895 0.022227 0.070991 0.009816
-21.787315 52.945484 6.716029 -178.366265 -18.280604 -2.070511 0.801595 16.800858 0.808341 0.076261 1.727913 0.075131 0.119257 2.898788 0.136759 0.718590 14.797682 0.749917 -2.708602 14.995381 -1.911608 -2.409904 -9.953919 -1.385850 -0.298332 -1.388028 2.834205 -1.669800 -8.721593 -4.888236 -89.977152 -78.887059 117.474399 -6.779228 -13.568979 -13.038771 -7.295363 -1.505356 0.769582 7.487750 -9.573911 8.403986 85.831773 -66.436783 -118.854711 1.889868 -12.469059 8.076479 2.041250 -60.147878 11.253823 -163.137994 86.282234 -164.538903 -13.061426 -22.176980 13.069768 -0.010014 0.003854 0.004955 4.456860 -58.868397 -3.068056 120.591493 77.714859 118.899481 -6.391093 -19.469330 -1.448025 0.019283 0.068970 0.009409
-21.787578 52.946982 6.715701 -178.364603 -18.274169 -2.077943 0.810498 16.777355 0.805606 0.071755 1.739084 0.083805 0.123359 2.888040 0.131554 0.716195 14.781507 0.741281 -2.825108 15.018818 -1.897506 -2.534793 -9.934162 -1.350309 -0.300820 -1.366660 2.853779 -1.644553 -8.734512 -4.880476 -90.487042 -78.964047 118.002748 -6.782466 -13.759861 -13.055361 -7.297186 -1.471078 0.782944 7.543496 -9.580716 8.359282 85.835920 -66.326244 -118.853531 1.971741 -12.636639 8.210602 2.027504 -60.147975 11.228655 -163.715156 86.288288 -165.158364 -12.812916 -22.196668 13.043161 0.003549 -0.016124 -0.005416 4.443796 -58.874935 -3.055126 120.589548 77.714476 118.897612 -6.389067 -19.469971 -1.450325 0.015607 0.067945 0.009156
-21.787519 52.948275 6.714977 -178.362179 -18.268015 -2.087330 0.809144 16.766386 0.808700 0.076456 1.731216 0.082820 0.119590 2.875091 0.124581 0.713895 14.784570 0.742114 -2.876195 15.038111 -1.887525 -2.716813 -9.910807 -1.298224 -0.296960 -1.356589 2.865037 -1.615578 -8.737662 -4.874522 -91.016840 -79.038626 118.553692 -6.795933 -13.974368 -13.056741 -7.284305 -1.446579 0.786941 7.596559 -9.588092 8.317278 85.852094 -66.224092 -118.868713 2.056788 -12.836984 8.354381 2.002055 -60.147706 11.209586 -164.343931 86.294848 -165.840108 -12.531435 -22.216553 13.013410 0.018457 -0.036053 -0.013143 4.422310 -58.882764 -3.033435 120.596183 77.717213 118.903847 -6.392853 -19.471474 -1.455649 0.020812 0.068590 0.012684
-21.788752 52.949029 6.714737 -178.360820 -18.256586 -2.087652 0.804787 16.754702 0.802457 0.074723 1.724610 0.081509 0.120597 2.874168 0.123885 0.714911 14.782103 0.742957 -3.020059 15.047999 -1.879884 -2.804398 -9.888359 -1.268630 -0.294080 -1.352991 2.869843 -1.600726 -8.737625 -4.870949 -91.561756 -79.117086 119.136236 -6.817205 -14.220967 -13.051054 -7.260808 -1.441044 0.790693 7.639307 -9.589493 8.273580 85.881698 -66.129435 -118.901687 2.146202 -13.069632 8.503777 1.999611 -60.159738 11.219334 -164.128646 86.290740 -165.624784 -12.630620 -22.202016 13.040157 0.015667 -0.030213 -0.004962 4.416841 -58.892662 -3.030053 120.598850 77.723585 118.904451 -6.388827 -19.473882 -1.461780 0.023062 0.072355 0.017833
-21.791260 52.948711 6.716695 -178.364646 -18.228948 -2.076953 0.802107 16.729390 0.787222 0.071544 1.720861 0.074703 0.122250 2.869453 0.126571 0.718182 14.778608 0.745106 -3.160298 15.061649 -1.868238 -2.890819 -9.866646 -1.236121 -0.290513 -1.351184 2.874455 -1.588960 -8.735606 -4.866433 -92.118298 -79.205694 119.733175 -6.837617 -14.498741 -13.049797 -7.247502 -1.433828 0.792806 7.690856 -9.593178 8.233959 85.920210 -66.035300 -118.950563 2.236503 -13.326918 8.657116 2.017948 -60.193054 11.235315 -163.585952 86.285555 -165.048354 -12.957943 -22.172632 13.095750 0.002900 -0.007850 0.008364 4.433295 -58.918485 -3.048021 120.595560 77.725710 118.898532 -6.392040 -19.475499 -1.463668 0.024891 0.072999 0.019197
-21.794268 52.948912 6.716236 -178.366555 -18.213504 -2.062696 0.798172 16.715381 0.770872 0.070623 1.721056 0.073919 0.120528 2.864885 0.123392 0.715464 14.768935 0.735580 -3.260163 15.079704 -1.845987 -3.005201 -9.842373 -1.192792 -0.285087 -1.380711 2.881851 -1.566518 -8.706231 -4.851068 -92.700881 -79.310396 120.347101 -6.848613 -14.799292 -13.063700 -7.236226 -1.420663 0.802912 7.747706 -9.598246 8.195875 85.974092 -65.934244 -119.023163 2.318941 -13.584834 8.818623 2.040742 -60.214729 11.268147 -162.695452 86.276283 -164.097263 -13.454649 -22.135502 13.169908 -0.017806 0.022889 0.024570 4.450184 -58.932228 -3.068932 120.597695 77.727787 118.895839 -6.394181 -19.473472 -1.464219 0.021293 0.068747 0.017906
-21.795985 52.949383 6.714499 -178.363967 -18.202509 -2.056300 0.789502 16.712179 0.760619 0.072469 1.715356 0.074277 0.119153 2.857447 0.118545 0.712004 14.743806 0.721491 -3.355537 15.117185 -1.817694 -3.117866 -9.813648 -1.147143 -0.277820 -1.370936 2.897263 -1.543169 -8.691400 -4.836335 -93.407782 -79.431945 121.086255 -6.852883 -15.114089 -13.094149 -7.216689 -1.398634 0.810931 7.764172 -9.591610 8.184139 86.085596 -65.813562 -119.128358 2.389660 -13.818346 8.981273 2.046554 -60.227240 11.285413 -162.302204 86.270725 -163.675713 -13.694748 -22.123913 13.202812 -0.027255 0.032964 0.028601 4.452301 -58.942314 -3.077352 120.584072 77.729991 118.881385 -6.399137 -19.468200 -1.466199 0.025866 0.066034 0.017452
